<svg xmlns="http://www.w3.org/2000/svg" viewBox="0 0 960 640"><path fill="#fff" d="M751.157 320.001c0-149.753-121.396-271.15-271.149-271.15S208.85 170.248 208.85 320.001 330.247 591.15 480 591.15s271.15-121.397 271.15-271.149"/><path fill="#ffb81c" d="M750.161 296.88H632.06v-96.222l55.317-55.324a272.3 272.3 0 0 0-32.702-32.711l-55.325 55.325-31.591-31.591-64.631.023V49.84c-7.628-.644-15.332-.989-23.128-.989s-15.5.345-23.128.989v86.563l-127.706.054-23.833-23.834a273.5 273.5 0 0 0-32.71 32.711l77.9 77.9v73.639H209.839c-.644 7.627-.989 15.331-.989 23.128s.353 15.5.989 23.128h140.684v73.638l-15.761 15.761-62.147 62.14a273 273 0 0 0 32.71 32.71l23.834-23.833h127.705v86.616c7.628.644 15.332.989 23.128.989s15.501-.345 23.128-.989v-86.616h64.739l31.483-31.492 55.325 55.325a272.4 272.4 0 0 0 32.703-32.71l-55.317-55.325v-96.222h118.1c.644-7.628.989-15.339.989-23.128s-.345-15.5-.989-23.128M530.058 399.473l-8.034 8.034h-72.78v-39.449l72.826-.054 7.988 7.981zm0-135.579-8.034 8.034h-72.78v-39.441l72.826-.054 7.988 7.981z"/><path fill="#010101" d="M480 1C303.823 1 161 143.823 161 320s142.823 319 319 319 319-142.823 319-319S656.185 1 480 1m0 590.157c-149.753 0-271.15-121.396-271.15-271.149S330.247 48.85 480 48.85 751.15 170.247 751.15 320 629.753 591.15 480 591.15"/><path fill="#010101" d="M349.259 483.452v-36.996l21.364-21.365V214.916l-21.364-21.365v-37.003l210.182-.084 52.519 52.519v79.579l-31.453 31.453 31.453 31.446v79.579l-52.427 52.427H349.259zm79.886-135.472v79.626h101.197l19.808-19.801v-40.131l-19.762-19.763zm0-135.571v79.626h101.197l19.808-19.809v-40.131l-19.762-19.762-101.236.076z"/><path fill="#010101" d="m550.15 407.797-19.816 19.801H429.137v-79.625l101.243-.069 19.763 19.762v40.131zm0-135.579-19.808 19.809H429.145v-79.618l101.243-.076 19.762 19.762v40.131zm61.818-63.243-52.527-52.519-210.182.084v37.004l21.364 21.364v210.176l-21.364 21.364v36.996h210.282l52.427-52.419v-79.58l-31.453-31.453 31.453-31.445v-79.58zM681.543 587.976c0 6.692 5.436 12.127 12.128 12.127s12.127-5.435 12.127-12.127-5.427-12.128-12.127-12.128-12.128 5.428-12.128 12.128m21.664 0c0 5.258-4.262 9.528-9.529 9.528s-9.528-4.27-9.528-9.528 4.27-9.529 9.528-9.529 9.529 4.27 9.529 9.529m-14.519 6.93h2.606v-5.642h1.863l2.622 5.642h2.867l-2.729-5.872a4.1 4.1 0 0 0 2.729-3.864 4.12 4.12 0 0 0-4.109-4.124h-5.857v13.86zm2.606-11.262h3.251c.828 0 1.51.675 1.51 1.518 0 .844-.682 1.503-1.51 1.503h-3.251v-3.028z"/></svg>