<svg xmlns="http://www.w3.org/2000/svg" viewBox="0 0 960 640"><path fill="#006ac6" d="m397.804 354.952 68.5 110.232c8.916 14.34 14.339 27.402 15.928 40.146 9.559 64.037-60.219 117.56-144.97 130.622-80.926 12.744-164.718-14.657-173.318-74.55-7.964-57.668 56.708-107.048 134.768-120.435 15.292-2.867 31.864-4.145 48.427-3.82L75.373.982h101.633l55.12 88.255c12.1-1.914 20.708-11.149 20.708-26.759 0-12.744-5.415-24.535-28.036-61.488h659.83c-16.89 33.452-54.803 67.864-102.277 87.936l34.095 7.011c-28.036 28.99-68.181 53.842-112.781 67.547l34.405 12.426c-28.672 24.21-64.356 44.925-112.147 56.391l31.22 16.563c-34.412 21.343-71.682 36.318-121.387 43.972l25.17 26.759c-35.048 8.917-67.864 10.83-102.594 8.917l22.938 36.635c-22.938 2.548-53.206-1.27-83.473-10.195z"/><path fill="#ffb81c" d="M856.424 15.957h-604.71c13.698 22.304 17.207 34.73 17.207 46.513 0 21.344-11.473 39.185-43.647 42.694L169.518 15.64h-66.593l273.044 438.404c-24.21-3.502-50.34-2.867-73.915 1.27-72.318 12.426-129.034 56.709-122.34 104.183 7.01 49.062 80.608 73.914 156.117 62.13 78.695-12.426 140.5-60.535 132.22-114.377-1.278-10.512-5.733-21.342-13.705-34.412l-89.842-144.01c30.584 12.109 66.268 20.073 89.524 20.391l-23.9-37.914c35.683 3.501 67.865 3.82 100.364-1.278l-28.673-29.625c49.063-3.184 88.572-13.38 122.985-31.22l-45.56-24.535c56.39-6.693 93.35-21.661 126.485-44.29l-57.669-21.025c62.124-8.282 104.182-29.315 135.402-54.16l-63.083-13.38c61.496-11.147 107.691-39.184 136.045-75.827zm-204.25 66.586h-339.63l3.503 5.415c4.462 7.33 7.328 8.917 15.927 8.917h341.862l73.278 15.61c-37.278 21.662-86.34 35.366-163.12 35.366h-230.67l3.503 5.415c4.78 7.328 7.646 8.917 16.246 8.917l239.91-.318 58.622 21.661c-39.51 19.755-79.338 27.719-144.328 28.037l-133.497.635 3.51 5.422c4.78 7.33 7.646 8.917 16.253 8.917l138.595-.317 40.144 21.986c-29.625 11.473-72.319 18.477-115.338 18.477h-7.963l30.902 31.863c-36.635 1.596-68.817-.953-98.448-5.74l22.938 37.278c-23.9-3.184-63.401-15.928-95.901-31.863l113.425 182.241c7.01 11.473 10.512 20.39 11.79 28.997 6.694 43.33-47.155 86.34-119.792 97.806-69.777 10.83-133.496-11.473-138.911-50.022-5.416-36.961 43.646-76.146 109.915-87.62 35.046-5.74 75.192-4.144 104.182 8.608L129.986 30.289h31.538l55.755 89.525c45.243.953 67.546-25.488 67.546-56.708 0-10.513-2.548-20.708-7.963-32.817h545.763c-39.502 35.683-98.767 52.254-170.45 52.254M440.604 613.845c0 5.128 4.152 9.288 9.287 9.288s9.28-4.16 9.28-9.288-4.152-9.287-9.28-9.287-9.287 4.152-9.287 9.287m16.579 0c0 4.024-3.26 7.299-7.299 7.299s-7.298-3.268-7.298-7.299a7.298 7.298 0 1 1 14.596 0"/><path fill="#ffb81c" d="M446.073 619.154h1.996v-4.318h1.43l2.004 4.318h2.2l-2.095-4.5a3.149 3.149 0 0 0-1.05-6.11h-4.485zm1.989-8.621h2.488c.635 0 1.157.521 1.157 1.164s-.522 1.157-1.157 1.157h-2.488z"/></svg>