<svg xmlns="http://www.w3.org/2000/svg" viewBox="0 0 960 640"><path fill="#fff" d="M824.31 472.799c-9.96 0-18.046 8.073-18.046 18.04 0 9.955 8.086 18.04 18.046 18.04s18.033-8.085 18.033-18.04c0-9.967-8.074-18.04-18.033-18.04m0 32.21c-7.839 0-14.17-6.338-14.17-14.17s6.331-14.16 14.17-14.16c7.828 0 14.167 6.331 14.167 14.16s-6.338 14.17-14.167 14.17m7.412-18.351a6.116 6.116 0 0 0-6.121-6.112h-8.693v20.592h3.864v-8.363h2.773l3.904 8.363h4.273l-4.075-8.72c2.375-.845 4.075-3.114 4.075-5.76m-6.121 2.25h-4.829v-4.505h4.829a2.26 2.26 0 0 1 2.257 2.255 2.26 2.26 0 0 1-2.257 2.25"/><path fill="#a2aaad" d="M957.723 200.002c-13.135-91.67-93.265-120.19-141.435-129.117l41.206-27.111S642.221-2.948 363.774 84.992C109.38 165.334-19.005 291.41 2.28 439.994c13.133 91.678 93.26 120.191 141.427 129.115L102.5 596.226s215.273 46.718 493.732-41.206C850.622 474.673 979 348.602 957.723 200.002Z"/><path fill="#fff" d="M944.932 204.032c-17.361-121.2-167.06-123.24-167.06-123.24l43.215-28.434s-204.39-33.176-455.39 46.094C144.061 168.44-6.728 283.719 15.074 435.96c17.36 121.219 167.06 123.25 167.06 123.25l-43.21 28.417s204.38 33.183 455.388-46.082c221.635-69.999 372.428-185.26 350.619-337.514Z"/><g fill="#cd001a"><path d="M921.686 211.38c-22.17-154.729-261.928-121.96-385.79-82.847-66.34 20.947-109.737 42.21-109.737 42.21 224.687-80.397 382.195-23.006 382.195-23.006-74.555-5.234-144.651 18.934-144.651 18.934s75.31 15.171 85.312 85.062c13.223 92.274-65.324 197.886-307.423 274.343-131.99 41.668-243.048 48.28-243.048 48.28s156.613 23.045 393.07-51.631c218.825-69.103 348.784-180.623 330.072-311.346"/><path d="M480.293 409.833c67.168-21.215 124.235-52.854 154.906-83.038 16.956-16.692 25.88-32.935 23.902-46.726-.76-5.259-3.099-9.874-6.77-13.87-23.325-25.413-102.006-25.064-192.123 3.391-104.297 32.946-184.358 91.031-178.814 129.755 5.55 38.725 94.599 43.422 198.9 10.487"/></g><g fill="#010101"><path d="M368.394 117.263C149.56 186.376 19.607 297.898 38.333 428.615 60.49 583.339 300.25 550.586 424.109 511.463c66.341-20.959 109.738-42.216 109.738-42.216-224.692 80.397-382.2 23.003-382.2 23.003 74.56 5.235 144.661-18.923 144.661-18.923s-75.312-15.179-85.314-85.073c-13.216-92.27 65.321-197.882 307.425-274.33 131.99-41.68 243.043-48.294 243.043-48.294s-156.607-23.035-393.068 51.633"/><path d="M446.085 211.598c-83.107 26.24-126.581 59.464-141.598 94.277l-30.196 69.953s36.651-65.698 185.011-112.546c111.869-35.333 180.155-26.418 193.03 2.917 3.67 3.996 6.009 8.611 6.769 13.87 1.978 13.791-6.946 30.034-23.902 46.726-28.022 39.41-81.529 81.797-128.475 110.426 37.491-11.837 205.754-91.671 193.547-176.906-11.336-79.091-109.656-94.362-254.186-48.717"/><path d="M463.498 313.576c-43.547 13.758-77.107 37.004-74.966 51.943 2.134 14.935 39.162 15.909 82.71 2.156 43.54-13.756 77.104-37.006 74.969-51.947-2.147-14.94-39.181-15.907-82.713-2.152"/></g></svg>