<svg xmlns="http://www.w3.org/2000/svg" viewBox="0 0 960 640"><path fill="#fff" d="M247.722 234.16c-2.167 7.819-.637 16.871-.17 19.293 24.435-1.487 34.421-5.992 34.421-5.992zM215.086 445.657c-2.677 1.36 3.145 15.426 1.233 25.582 1.615 4.59 8.414 21.375 19.845 15.511s1.785-21.163-1.02-25.157c-9.391-4.377-17.38-17.296-20.015-15.936zM310.785 276.825c-9.434 2.465-18.018 11.941-35.186 16.446-6.289 1.657-11.601 1.955-14.873 1.955 2.592 3.484 10.963 5.396 10.963 5.396s-6.331 5.78-6.841 10.072c2.847-1.615 7.649-3.952 13.938-5.61 17.168-4.504 29.279-.552 38.713-3.017 4.419-1.19 12.621-3.442 9.306-15.978-3.314-12.536-11.558-10.454-15.978-9.306zM547.268 223.027c-1.063-.51-2.337-.128-2.847.935a855 855 0 0 0-21.248 45.384l-24.859 11.006c-1.36 2.168-2.678 4.335-3.952 6.417l26.346-11.686c-6.841 16.105-12.493 30.724-17.04 43.43l-33.146 13.471c-.935 2.124-1.7 3.952-2.337 5.524l33.571-13.641c-10.284 29.364-14.491 47.297-14.576 47.637a2.137 2.137 0 0 0 1.615 2.549c1.147.255 2.252-.467 2.549-1.572.085-.34 4.165-17.55 14.024-45.852l17.805 29.959 3.102-2.89v-.17l-19.08-32.126c4.122-11.601 9.179-24.859 15.256-39.435l13.768 23.755c.468-1.955.892-3.995 1.402-6.035L524.49 277.08c6.715-15.765 14.534-32.976 23.755-51.164.51-1.062.085-2.337-.935-2.847zM766.287 289.531c-33.019-53.161-103.263-116.308-119.283-130.374-1.02 1.742-2.21 3.357-3.655 4.802 10.157 28.556 49.252 135.686 85.245 193.649 35.228 56.688 69.692 53.926 69.692 53.926s11.601-51.844-32.042-122.003zm20.695 54.096-28.897-5.269-34.208-55.074 41.05 12.154c10.496 17.465 17.466 33.698 22.055 48.189m-25.412-53.628-41.092-12.154-31.702-50.951 28.599 7.096c16.573 18.188 32.594 37.736 44.195 56.009M648.789 166.381c12.493 11.176 38.118 34.761 63.402 61.957l-26.559-6.629-17.126-27.494a2.046 2.046 0 0 0-2.889-.68c-.978.638-1.318 1.912-.68 2.932l17.89 28.769-3.697 20.143c-13.683-33.274-24.732-63.402-30.341-79.041zm33.316 86.265 3.994-22.013 31.106 50.102-10.241 27.791c-8.754-18.103-17.168-37.31-24.902-55.838zm50.144 102.71c-7.522-12.111-15.171-26.347-22.65-41.56l10.496-28.472 34.293 55.158-10.538 31.489c-3.825-4.844-7.692-10.326-11.559-16.615zm62.467 51.716c-7.394-.935-26.347-5.864-47.722-31.234l10.284-30.724 16.276 26.135c.637 1.02 1.912 1.317 2.932.68 1.02-.638 1.317-1.955.68-2.933l-16.063-25.836 27.281 4.971c8.627 29.492 7.309 50.909 6.332 58.898z"/><path fill="#fedd00" d="M555.046 162.302c6.077 0 5.312-8.159-.34-8.159-87.369 0-137.343 11.091-145.035 12.918-4.844-42.792-29.449-56.433-29.449-84.14 0-10.75 7.097-12.918 12.919-12.918 20.397 0 35.696 23.925 63.997 23.925 26.304 0 31.999-18.656 46.999-18.656 22.523 0 12.579 59.875 52.524 59.875 12.621 0 20.908-5.056 20.908-5.056 5.354-3.018.212-9.434-4.377-7.012 0 0-7.989 4.122-15.851 4.122-33.741 0-18.995-60.088-54.096-60.088-16.785 0-22.395 18.485-46.659 18.485-27.027 0-37.778-24.222-64.592-24.222-15.214 0-20.653 10.2-20.653 20.398 0 30.639 30.256 53.968 30.256 96.038s-14.618 80.358-14.618 139.723c0 69.225 65.782 89.622 65.782 154.129 0 36.503 14.024 59.068 29.704 59.068 8.627 0 16.658-5.057 20.44-18.485 2.252.977 4.335 1.487 6.077 1.487 4.377 0 20.737-4.802 20.737-24.009 0-55.031-94.508-83.46-94.508-169.682 0-41.433 6.629-107.767 16.828-107.767 5.312 0 11.983 23.202 24.689 23.202 15.766 0 10.242-45.81 17.296-45.81 5.609 0 14.023 21.375 24.094 21.375 8.117 0 10.794-16.573 14.321-29.619 1.317-6.076-7.309-7.776-8.499-1.614-2.167 9.688-6.757 22.522-6.757 22.522-5.141-5.142-13.47-20.823-23.542-20.823-16.02 0-13.683 45.725-17.295 45.725-6.714 0-10.964-23.712-25.54-23.712-18.825 0-24.392 65.399-24.392 116.946 0 90.599 94.551 120.897 94.551 168.407 0 11.941-8.669 16.02-12.153 16.02-1.402 0-2.847-.34-4.292-.892.425-3.315.637-6.927.637-10.964 0-28.004-15.383-33.231-21.672-33.231s-9.774 5.44-9.774 14.448c0 12.069 10.666 25.497 21.078 33.189-1.53 7.564-4.845 14.448-11.856 14.448-13.599 0-21.29-31.531-21.29-50.314 0-68.034-65.74-87.794-65.74-155.828 0-57.921 14.618-95.104 14.618-133.647 0-2.379-.042-4.674-.17-6.926 9.052-2.168 65.4-14.789 144.695-12.919zm-72.411 312.507c0-4.717 1.19-6.502 2.465-6.502 7.649 0 11.133 15.383 11.133 21.503 0 1.657 0 4.759-.212 8.371-7.437-7.182-13.386-18.145-13.386-23.372"/><path fill="#fedd00" d="M599.028 183.847s-49.719 104.707-49.719 226.71c0 80.782 25.029 142.527 31.956 142.527 5.439 0 31.064-38.415 31.064-118.645 0-32.466-17.593-155.574-13.301-250.592m-21.205 70.499c.935-3.188 5.439-4.037 4.802 1.402-3.272 28.004-5.525 53.331-6.969 75.896l-17.508 13.513c4.589-34.166 12.111-65.314 19.675-90.811m-20.483 97.015 17.933-13.853c-1.232 20.398-1.785 38.458-1.955 54.138l-19.717 13.471c.212-18.442 1.572-36.503 3.697-53.798zm-3.782 59.366 19.718-13.471c-.128 25.454.807 44.152 1.7 55.923l-17.763 11.049a395 395 0 0 1-3.655-53.459zm48.02 87.837c-2.253 1.614-9.477 4.164-21.035-15.044-6.715 20.355-14.746 14.704-17.721 11.559a366 366 0 0 1-4.844-25.794l19.972-12.409 27.707 18.4a246 246 0 0 1-4.037 23.288zm6.501-64.125c0 13.003-.68 24.902-1.87 35.695l-25.242-16.785c-.849-11.049-1.784-28.769-1.742-52.949l28.302 19.548c.34 5.694.552 10.581.552 14.533zm-.935-20.355-27.876-19.25c.127-15.596.595-33.656 1.784-54.096l20.95 15.468c2.083 22.395 4.037 42.452 5.142 57.878m-5.694-63.828-20.058-14.83c1.445-23.542 3.74-50.187 7.267-79.806.977-8.329 5.907-4.079 6.077.383 1.232 31.574 4.037 64.677 6.714 94.253M711.597 366.405a291 291 0 0 1-4.845-7.522c-7.096-11.431-13.726-23.67-19.887-36.291 2.294 9.732 4.292 19.421 5.78 28.897 14.022 88.517-12.75 127.102-12.75 127.102s-38.755-36.971-54.86-139.086c-11.262-71.179-5.397-150.262-3.782-168.747-2.21-.467-4.335-1.275-6.29-2.294-7.394 171.849 9.604 201.595 12.75 250.634 43.43 68.459 44.958 88.389 44.958 88.389s50.697-35.525 38.968-141.04zM638.123 167.996a24.4 24.4 0 0 1-6.46 2.55c3.655 7.776 11.134 23.967 19.718 44.917-5.907-19.25-10.369-35.866-13.258-47.424z"/><path fill="#fedd00" d="m642.926 286.472-13.386-84.65c-.637-3.825-5.694-3.4-5.949 2.167-1.105 25.71-1.572 61.958 1.572 98.971l17.763-16.446zM657.034 375.753l-6.629-41.857-18.613 18.443c2.932 15.595 6.417 29.491 10.156 41.772zM625.673 308.527c.935 10.113 2.167 20.227 3.74 30.213q.701 4.207 1.402 8.287l18.74-18.57-5.822-36.716zM633.959 201.099s6.884 43.813 13.556 85.798l29.916 16.828c-11.176-39.988-26.771-79.126-37.99-105.09-1.275-3.315-6.247-2.635-5.482 2.422zM668.593 424.155c-.34-1.36-8.032-32.806-10.454-42.792l-14.661 17.848c5.27 16.488 10.964 30.001 16.361 40.752 2.847-5.142 8.16-14.831 8.754-15.85zM648.364 292.506c1.913 12.154 3.825 24.265 5.61 35.356l33.443 19.122c-2.124-12.153-5.014-24.689-8.329-37.183zM654.824 333.513c3.145 19.718 5.609 35.526 6.587 41.475l30.681 16.573c-.382-11.643-1.53-24.604-3.74-38.882l-33.486-19.166zM688.225 442.173l-16.616-14.193-9.264 16.828c6.842 12.918 12.919 21.332 16.701 26.006 2.55-5.311 6.332-14.745 9.179-28.641M692.22 396.661l-29.619-15.978c2.252 9.221 8.754 35.866 10.411 42.58l16.191 13.853c1.912-11.006 3.229-24.435 3.017-40.455"/><path fill="#eaaa00" d="M421.186 473.449c15.256-23.542 6.545-64.082-22.564-52.821-16.828-27.494-35.866-64.635-35.866-110.614 0-48.954 10.029-61.83 10.029-105.09 0-73.729-34.124-88.347-56.009-103.177-52.098 35.313-121.237 83.672-121.237 109.381 0 7.607 3.357 14.704 3.357 22.183 0 26.601-51.844 78.318-51.844 103.347 0 9.391 7.479 17.253 19.548 17.253s42.707-4.462 54.223-5.694 12.791-6.757 12.791-9.732c0-7.436-11.856-17.847-20.822-17.847-7.437 0-8.159 4.376-8.159 5.481 0 4.887 7.054 6.332 7.054 6.332 8.924-1.232 8.966 6.629.467 6.629-7.012 0-14.873-5.184-14.873-14.108s7.182-11.176 12.493-11.176c22.395 0 35.271 20.227 31.574 33.103 27.749 13.769 26.942 34.039 22.437 34.039-9.603 0-2.932-25.54-39.137-25.54-10.157 0-31.362 3.06-36.376 3.57s-6.502 1.232-7.097 5.354-5.864 19.038-5.864 28.217c0 13.598 9.051 14.491 14.873 14.491 15.256 0 41.008-3.655 41.008-9.732 0-3.909-6.544-2.804-8.967-2.804-4.547 0-6.629-2.848-6.629-4.462 0-4.037 6.544-5.992 14.363-5.992 12.961 0 14.321 8.414 13.684 12.366-1.445 8.754 12.621 6.629 12.621 25.114 0 2.04-.17 7.352-4.59 7.352s-4.504-5.524-4.504-8.669-5.057-7.947-9.391-7.947c-4.59 0-21.248 8.584-57.114 5.312-14.15 17.763 2.593 19.038 2.593 36.971 0 20.1-6.12 18.74-6.12 31.021 0 24.392 26.73 30.724 53.374 30.724 55.201 0 117.413-12.834 139.341-52.354-7.565 34.931-35.654 47.467-83.46 58.303 5.396 38.713 13.428 47.679 19.25 58.133 5.864 10.454 7.096 25.157 17.38 25.157 12.324 0 84.947-26.177 133.774-55.626l-35.653-76.448zm-175.333-11.601c-3.655 1.87-7.267 1.36-10.752-.213 2.805 3.995 12.451 19.293 1.02 25.157s-18.23-10.921-19.845-15.51c-.722 3.739-2.422 6.969-6.077 8.839-4.037 2.082-9.009.297-11.303-4.122-2.847-5.61 3.612-23.797.595-32.721-2.848-8.287 4.037-6.757 9.433-9.519 5.397-2.762 8.202-9.222 13.259-2.082 5.439 7.691 24.01 13.046 26.857 18.655 2.252 4.419.807 9.519-3.23 11.558zm39.902-321.984 25.88-19.335c1.402-1.02 3.314-1.062 4.717-.085 18.995 13.259 29.533 26.262 30.001 26.815 1.402 1.742 1.105 4.291-.638 5.651-1.699 1.403-4.249 1.148-5.651-.595-.085-.127-9.434-11.558-25.922-23.542-1.233.893-3.527 2.635-6.162 4.632 8.117 6.884 30.681 26.559 45.682 45.172 1.402 1.743 1.105 4.292-.637 5.695-1.743 1.402-4.25 1.104-5.695-.595-15.34-19.081-39.732-39.988-46.022-45.3-2.464 1.827-4.802 3.612-6.544 4.887 14.746 12.196 25.37 24.774 25.879 25.327 1.7 1.955.808 4.632-.509 5.694-1.743 1.445-4.25 1.233-5.695-.467-.127-.17-12.578-14.916-28.726-27.452-1.87-1.572-2.337-4.632.085-6.417zm-54.691 138.449c-4.419 0-1.487-10.922-1.572-14.959-24.69-.339-27.452-9.221 1.02-9.476-.85-3.654-3.782-18.315.68-26.177l-13.896-5.397c-11.304-4.504 10.241-11.983 7.097-18.74 0 0-6.417-4.887-6.417-10.369s8.584-12.026 25.114-12.026c30.894 0 38.968 26.39 63.573 26.39 4.802 0 17.678-2.592 17.678 2.634s-10.412 10.709-19.761 10.709c-21.544 0-37.82-16.233-48.656-16.233-1.02 0-3.102.34-3.91 2.337l-2.932 6.714c-2.125 4.93 1.148 6.885 1.148 6.885l38.117 22.394c7.989 4.717 3.782 8.457-.34 9.647 0 0-23.329 7.139-44.067 9.689-2.252 10.368-8.244 15.85-12.918 15.85zm33.784 33.911c1.402 5.354 10.241 5.269 17.21 3.442 6.969-1.828 11.261-4.292 14.023-5.015 5.652-1.487 11.644-.595 12.834 3.91 2.167 8.329-8.287 11.898-14.278 13.471-29.874 7.861-41.645.467-43.898-7.989-2.252-8.499 5.1-15.214 5.1-15.214s-9.689-2.209-11.941-10.666c-2.21-8.499 4.419-20.737 34.251-28.599 5.991-1.572 16.87-3.612 19.08 4.675 1.19 4.504-3.612 8.244-9.264 9.731-2.762.722-7.734.722-14.703 2.55s-14.703 6.161-13.259 11.473c.128.468.383.893.68 1.318 3.272 0 8.627-.298 14.873-1.955 17.168-4.547 25.752-13.981 35.186-16.446 4.42-1.147 12.664-3.229 15.978 9.307s-4.887 14.788-9.306 15.978c-9.434 2.507-21.588-1.488-38.713 3.017a59.9 59.9 0 0 0-13.938 5.609c-.043.51-.085 1.02.042 1.488zm87.327 84.692c-52.311-15.468-19.038-80.103 5.142-73.644-31.659 28.727-15.724 62.128-5.142 73.644m41.517 87.284c-10.454-3.017-15.001-18.91-10.199-35.44 4.802-16.531 17.211-27.495 27.622-24.435 10.454 3.06 15.001 18.91 10.199 35.441-4.802 16.53-17.168 27.451-27.622 24.434"/><path fill="#eaaa00" d="M407.929 435.289c-5.78-1.7-12.961 5.439-16.021 15.935s-.85 20.398 4.972 22.055c5.822 1.7 13.003-5.439 16.02-15.936 3.06-10.496.85-20.397-4.971-22.054M244.153 202.034l-15.468 4.122c-3.23.85-3.442 2.763-.382 4.25l11.771 5.694c1.19.595 2.634.043 3.187-1.19l4.037-9.221c1.19-2.762-.213-4.419-3.145-3.655"/><path fill="#f5812b" d="M639.526 93.587h-38.457l24.519 26.56h13.938zM781.758 284.729c-41.773-67.184-114.779-123.66-131.607-136.196-.212 3.867-1.317 7.479-3.144 10.624 16.02 14.066 86.222 77.213 119.283 130.374 43.642 70.159 32.041 122.003 32.041 122.003s-34.464 2.762-69.692-53.926c-35.993-57.963-75.131-165.093-85.244-193.649a23.6 23.6 0 0 1-5.27 4.079c2.89 11.559 7.352 28.174 13.259 47.425 8.754 21.417 18.655 47.721 26.899 75.173 9.476 22.692 20.482 45.342 33.018 65.442 51.717 83.205 103.518 71.774 103.518 71.774-8.882-14.321 17.21-62.298-33.019-143.123z"/><path fill="#f5812b" d="M648.79 166.381c5.567 15.638 16.616 45.724 30.342 79.04l3.697-20.142-17.891-28.769c-.637-.978-.297-2.295.68-2.932a2.07 2.07 0 0 1 2.89.68l17.125 27.494 26.56 6.629c-25.285-27.197-50.909-50.781-63.403-61.958z"/><path fill="#f5812b" d="m688.779 226.894 31.701 50.951 41.092 12.154c-11.601-18.273-27.621-37.778-44.194-56.009zM682.106 252.646c7.734 18.527 16.19 37.777 24.902 55.838l10.241-27.792-31.106-50.101-3.995 22.012zM794.717 407.072c.977-7.989 2.252-29.364-6.332-58.898l-27.281-4.972 16.063 25.837c.637.977.34 2.295-.68 2.932a2.17 2.17 0 0 1-2.932-.68l-16.276-26.134-10.284 30.724c21.375 25.369 40.285 30.298 47.722 31.233zM723.837 283.284l34.208 55.074 28.897 5.269c-4.589-14.448-11.559-30.724-22.055-48.189zM743.808 371.971l10.539-31.489-34.293-55.158-10.497 28.472c7.479 15.213 15.129 29.491 22.65 41.56 3.91 6.246 7.777 11.771 11.559 16.615z"/><path fill="#c8102e" d="M411.118 424.367c-10.454-3.059-22.82 7.904-27.622 24.435s-.255 32.381 10.199 35.441c10.453 3.059 22.819-7.904 27.621-24.435 4.845-16.53.255-32.381-10.198-35.441m1.784 32.976c-3.017 10.497-10.198 17.636-16.02 15.936-5.822-1.657-8.032-11.559-4.972-22.055s10.241-17.635 16.02-15.935c5.822 1.699 8.032 11.558 4.972 22.054M222.227 431.634c-5.057-7.139-7.862-.68-13.259 2.082-5.396 2.762-12.281 1.275-9.433 9.519 3.059 8.924-3.443 27.112-.595 32.721 2.252 4.42 7.266 6.204 11.303 4.122 3.655-1.87 5.355-5.099 6.077-8.839 1.912-10.156-3.91-24.222-1.232-25.582s10.666 11.559 20.015 15.936c3.442 1.615 7.096 2.082 10.751.212 4.037-2.082 5.524-7.181 3.23-11.558-2.848-5.567-21.46-10.964-26.857-18.655zM296.082 310.608c-2.762.723-7.054 3.188-14.023 5.015s-15.808 1.87-17.21-3.442c-.128-.468-.128-.978-.043-1.488.51-4.334 6.842-10.071 6.842-10.071s-8.372-1.912-10.964-5.397c-.297-.425-.552-.85-.68-1.317-1.402-5.312 6.289-9.646 13.259-11.474 6.969-1.827 11.941-1.827 14.703-2.549 5.652-1.488 10.411-5.227 9.264-9.732-2.21-8.286-13.089-6.246-19.08-4.674-29.874 7.861-36.504 20.142-34.251 28.599 2.252 8.456 11.941 10.666 11.941 10.666s-7.352 6.714-5.1 15.213c2.253 8.457 14.024 15.851 43.898 7.989 5.991-1.572 16.445-5.184 14.278-13.471-1.19-4.504-7.182-5.396-12.834-3.909zM602.302 145.431C515.06 210.703 468.146 308.016 453.91 341.332c0 0-1.912 3.91.297 8.202l27.622 53.756c1.147 2.252 3.612 2.72 5.482 1.02l45.469-41.05c3.145-2.847 4.122-7.394 4.122-7.394 20.738-118.519 48.7-176.482 66.037-202.743a24.7 24.7 0 0 1-.722-5.907c0-.595 0-1.147.085-1.742zm-71.774 210.605-45.044 41.73-24.732-53.459s28.089-85.627 130.246-184.768c-38.712 69.862-60.47 196.497-60.47 196.497"/><path fill="#c8102e" d="M523.176 269.346a893 893 0 0 1 21.248-45.385c.51-1.062 1.784-1.444 2.847-.934 1.02.509 1.487 1.784.935 2.847a871 871 0 0 0-23.755 51.164l13.131 22.607c8.754-37.311 22.097-85.925 38.288-119.071-35.738 38.543-60.64 72.751-77.596 99.821l24.86-11.007zM491.305 372.481a2.08 2.08 0 0 1-2.549 1.572 2.137 2.137 0 0 1-1.615-2.549c.085-.34 4.292-18.273 14.576-47.637l-33.571 13.641c-1.743 4.249-2.465 6.502-2.465 6.502l21.29 45.937 36.078-33.444-17.805-29.959c-9.859 28.302-13.896 45.555-14.024 45.852z"/><path fill="#c8102e" d="m520.71 275.083-26.347 11.686c-12.068 19.888-19.547 35.398-23.839 45.215l33.146-13.471c4.589-12.706 10.198-27.367 17.04-43.43M507.155 321.402l19.08 32.126c.34-1.997 3.909-21.459 9.944-47.849l-13.769-23.754c-6.077 14.575-11.133 27.834-15.255 39.435zM626.226 135.53c-6.459 0-11.643 5.227-11.643 11.643s5.227 11.644 11.643 11.644 11.644-5.227 11.644-11.644-5.227-11.643-11.644-11.643"/><path fill="#008755" d="m674.625 110.67-23.372 15.553 5.397 17.806 26.304-5.822zM610.331 165.149a23.8 23.8 0 0 1-4.462-5.227c-27.962 44.79-63.53 156.891-63.53 252.844s30.044 150.305 40.88 150.305c8.372 0 37.778-52.609 37.778-120.261 0-18.485-15.468-92.681-15.468-231.979 0-29.917 2.252-37.863 4.802-45.682m1.997 269.29c0 80.23-25.624 118.646-31.064 118.646-6.926 0-31.956-61.703-31.956-142.528 0-122.003 49.719-226.71 49.719-226.71-4.249 95.018 13.301 218.126 13.301 250.592"/><path fill="#008755" d="m575.273 337.508-17.933 13.853c-2.124 17.296-3.484 35.356-3.697 53.799l19.718-13.471c.17-15.681.722-33.784 1.955-54.139zM588.617 255.62c-3.527 29.619-5.822 56.221-7.267 79.806l20.058 14.83c-2.677-29.576-5.482-62.68-6.714-94.253-.17-4.462-5.142-8.669-6.077-.383M579.267 394.833l27.876 19.251c-1.104-15.426-3.059-35.526-5.141-57.878l-20.95-15.468a1080 1080 0 0 0-1.785 54.095M582.625 255.79c.638-5.482-3.867-4.632-4.802-1.402-7.564 25.497-15.085 56.646-19.675 90.811l17.508-13.513c1.445-22.607 3.697-47.934 6.969-75.896M557.977 469.285c1.402 9.263 3.059 17.932 4.844 25.794 2.975 3.102 11.006 8.796 17.721-11.559 11.558 19.166 18.782 16.658 21.035 15.044 1.572-7.012 2.932-14.789 4.037-23.288l-27.707-18.4-19.973 12.409zM580.967 453.349l25.242 16.785c1.19-10.793 1.87-22.692 1.87-35.695 0-3.952-.213-8.839-.553-14.534l-28.301-19.547c-.043 24.179.892 41.9 1.742 52.948zM573.317 397.256 553.6 410.727a395 395 0 0 0 3.654 53.458l17.763-11.049c-.85-11.728-1.827-30.468-1.7-55.923zM460.707 344.307l24.732 53.459 45.044-41.73s21.758-126.635 60.471-196.497C488.796 258.68 460.707 344.307 460.707 344.307m76.915-44.662c-.509 2.04-.934 4.079-1.402 6.034-6.034 26.347-9.646 45.852-9.944 47.849v.17l-3.102 2.89-36.078 33.444-21.29-45.937s.723-2.253 2.465-6.502a158 158 0 0 1 2.337-5.524c4.292-9.817 11.771-25.37 23.84-45.215 1.275-2.082 2.592-4.207 3.952-6.417 16.955-27.069 41.857-61.277 77.595-99.82-16.148 33.146-29.491 81.76-38.288 119.07zM626.225 128.986c-10.072 0-18.231 8.159-18.231 18.23s8.159 18.23 18.231 18.23 18.187-8.159 18.187-18.23-8.116-18.23-18.187-18.23m0 29.831c-6.46 0-11.644-5.227-11.644-11.644s5.227-11.643 11.644-11.643 11.643 5.227 11.643 11.643-5.227 11.644-11.643 11.644"/><path fill="#213b88" d="M692.645 351.446c-1.487-9.476-3.484-19.165-5.779-28.896-2.507-10.666-5.439-21.375-8.626-31.956-8.244-27.452-18.188-53.756-26.899-75.174a980 980 0 0 0-19.718-44.917 23 23 0 0 1-5.439.638c-1.743 0-3.358-.213-5.015-.51-1.615 18.527-7.479 97.568 3.782 168.747 16.106 102.115 54.861 139.085 54.861 139.085s26.772-38.585 12.749-127.102zm-.552 40.073-30.681-16.573c-.935-5.949-3.442-21.757-6.587-41.475l33.486 19.165c2.252 14.278 3.357 27.239 3.74 38.883zm-13.003-81.718c3.314 12.494 6.204 25.03 8.329 37.183l-33.444-19.122c-1.742-11.092-3.697-23.203-5.609-35.356zm-39.691-111.166c11.219 25.964 26.857 65.059 37.991 105.09l-29.917-16.828c-6.629-41.985-13.555-85.798-13.555-85.798-.808-5.056 4.164-5.736 5.481-2.422zm-15.808 5.312c.255-5.525 5.312-5.992 5.95-2.168l13.385 84.65-17.762 16.446c-3.145-37.056-2.678-73.261-1.573-98.971zm5.822 134.793c-1.572-9.943-2.805-20.1-3.739-30.214l18.06-16.785 5.822 36.716-18.741 18.57q-.7-4.08-1.402-8.287m2.38 13.599 18.613-18.443 6.629 41.857-15.086 18.358c-3.739-12.323-7.224-26.219-10.156-41.772m11.728 46.914 14.661-17.848c2.422 9.944 10.114 41.39 10.454 42.792-.595 1.02-5.907 10.667-8.754 15.851-5.354-10.751-11.049-24.264-16.361-40.753zm35.484 71.561c-3.782-4.674-9.859-13.088-16.701-26.006l9.264-16.828 16.616 14.193c-2.848 13.896-6.63 23.329-9.179 28.641m10.156-33.698-16.191-13.853c-1.657-6.715-8.116-33.359-10.411-42.58l29.619 15.978c.212 16.02-1.105 29.449-3.017 40.455"/><path fill="#010101" d="M485.099 468.307c-1.275 0-2.464 1.785-2.464 6.502 0 5.227 5.949 16.233 13.385 23.372.213-3.655.213-6.757.213-8.372 0-6.119-3.485-21.502-11.134-21.502"/><path fill="#010101" d="M818.896 411.576c0-25.029 24.604-118.22-154.214-258.963l30.044-6.715-15.469-51.036-29.831 19.888V83.814h-58.558c-38.16-27.495-56.56-62.723-116.733-62.723-25.115 0-51.504 5.015-57.241 5.015-4.419 0-17.805-2.848-40.582-2.848-65.74 0-71.774 49.04-63.573 66.25C226.305 148.703 183.47 191.41 183.47 206.794c0 5.949 3.527 13.683 3.527 24.859 0 24.307-52.524 77.893-52.524 106.237 0 26.475 33.699 28.302 33.699 28.302 1.912 7.819-11.134 33.698.595 46.957-16.233 17.635 2.719 26.431 2.719 40.455 0 9.519-6.586 12.408-6.586 29.959 0 19.972 9.391 44.152 58.685 44.152 19.505 0 36.758-3.06 50.484-3.06 3.825 41.39 21.502 57.666 24.392 68.034 2.337 8.329 7.777 26.39 18.74 26.39 14.321 0 93.276-25.88 153.237-62.298 30.086 11.176 68.289 7.479 82.142 7.479 15.128 0 21.418 9.264 30.342 9.264 5.354 0 46.149-45.512 43.557-145.12 25.539 43.218 40.71 71.349 42.197 87.455 33.104-11.814 60.98-90.174 48.827-140.063 0 0 41.73 67.779 105.005 57.75 0 0-3.612-12.366-3.612-21.927zM674.626 110.67l8.328 27.537-26.346 5.864-5.397-17.805 23.372-15.596zm-48.402 18.316c10.071 0 18.188 8.159 18.188 18.23s-8.117 18.23-18.188 18.23-18.23-8.159-18.23-18.23 8.159-18.23 18.23-18.23m13.301-35.399v26.56h-13.896l-24.52-26.56zM323.066 605.523c-10.284 0-11.517-14.703-17.381-25.157-5.822-10.454-13.853-19.42-19.25-58.133 47.807-10.836 75.896-23.372 83.46-58.303-21.927 39.478-84.14 52.354-139.341 52.354-26.644 0-53.373-6.375-53.373-30.724 0-12.281 6.119-10.88 6.119-31.021 0-17.933-16.701-19.208-2.592-36.971 35.865 3.272 52.523-5.312 57.113-5.312 4.334 0 9.391 4.845 9.391 7.947s.043 8.669 4.505 8.669 4.589-5.312 4.589-7.352c0-18.485-14.066-16.403-12.621-25.114.638-3.952-.722-12.366-13.683-12.366-7.819 0-14.363 1.954-14.363 5.99 0 1.616 2.082 4.463 6.629 4.463 2.422 0 8.966-1.104 8.966 2.805 0 6.119-25.794 9.73-41.007 9.73-5.822 0-14.874-.891-14.874-14.49 0-9.178 5.27-24.094 5.865-28.216s2.082-4.844 7.096-5.354 26.22-3.57 36.376-3.57c36.163 0 29.491 25.54 39.138 25.54 4.504 0 5.312-20.27-22.438-34.04 3.697-12.875-9.221-33.102-31.573-33.102-5.312 0-12.494 2.209-12.494 11.176s7.862 14.108 14.873 14.108c8.499 0 8.457-7.861-.467-6.63 0 0-7.054-1.444-7.054-6.331 0-1.105.722-5.482 8.159-5.482 8.966 0 20.822 10.412 20.822 17.848 0 2.975-1.274 8.499-12.791 9.732s-42.197 5.694-54.223 5.694-19.548-7.862-19.548-17.253c0-25.03 51.844-76.746 51.844-103.348 0-7.48-3.357-14.575-3.357-22.182 0-25.71 69.182-74.068 121.238-109.382 21.927 14.83 56.008 29.449 56.008 103.178 0 43.26-10.029 56.093-10.029 105.09 0 45.979 19.038 83.12 35.866 110.614 29.109-11.22 37.82 29.279 22.565 52.82l35.653 76.449c-48.827 29.449-121.45 55.626-133.774 55.626zm185.957-91.746c-1.742 0-3.824-.51-6.077-1.488-3.782 13.429-11.813 18.485-20.44 18.485-15.68 0-29.704-22.564-29.704-59.067 0-64.55-65.782-84.905-65.782-154.129 0-59.366 14.619-97.016 14.619-139.723s-30.257-65.357-30.257-96.039c0-10.199 5.44-20.397 20.653-20.397 26.856 0 37.565 24.222 64.592 24.222 24.264 0 29.831-18.486 46.659-18.486 35.059 0 20.355 60.088 54.096 60.088 7.862 0 15.851-4.122 15.851-4.122 4.589-2.422 9.731 3.995 4.377 7.012 0 0-8.287 5.057-20.908 5.057-39.902 0-30.001-59.876-52.523-59.876-15.001 0-20.653 18.656-47 18.656-28.344 0-43.599-23.925-63.997-23.925-5.822 0-12.918 2.21-12.918 12.919 0 27.706 24.604 41.347 29.449 84.139 7.691-1.827 57.665-12.918 145.035-12.918 5.651 0 6.416 8.159.339 8.159-79.295-1.87-135.643 10.751-144.695 12.918.128 2.253.17 4.547.17 6.927 0 38.543-14.618 75.683-14.618 133.646 0 68.035 65.74 87.795 65.74 155.829 0 18.825 7.691 50.314 21.29 50.314 7.011 0 10.326-6.927 11.856-14.448-10.411-7.649-21.078-21.12-21.078-33.189 0-9.009 3.527-14.448 9.774-14.448s21.673 5.227 21.673 33.231c0 4.037-.213 7.649-.638 10.964 1.445.552 2.89.892 4.292.892 3.485 0 12.154-4.079 12.154-16.021 0-47.509-94.551-77.808-94.551-168.407 0-51.503 5.566-116.945 24.392-116.945 14.575 0 18.825 23.712 25.539 23.712 3.612 0 1.275-45.725 17.295-45.725 10.072 0 18.401 15.681 23.543 20.823 0 0 4.589-12.834 6.756-22.523 1.19-6.161 9.817-4.462 8.499 1.615-3.527 13.046-6.204 29.619-14.321 29.619-10.071 0-18.485-21.375-24.094-21.375-7.054 0-1.53 45.81-17.296 45.81-12.706 0-19.377-23.203-24.689-23.203-10.156 0-16.828 66.335-16.828 107.767 0 86.223 94.509 114.652 94.509 169.682 0 19.208-16.361 24.01-20.738 24.01zm23.797-150.56-45.469 41.05c-1.87 1.7-4.335 1.233-5.482-1.02l-27.622-53.756c-2.21-4.249-.297-8.201-.297-8.201 14.236-33.316 61.15-130.629 148.392-195.901-.043.594-.085 1.147-.085 1.742 0 2.04.255 4.037.722 5.907-17.338 26.261-45.299 84.224-66.037 202.743 0 0-1.02 4.547-4.122 7.394zm50.442 199.854c-10.837 0-40.88-52.142-40.88-150.305s35.568-208.055 63.529-252.844a23.9 23.9 0 0 0 4.462 5.227c-2.549 7.776-4.802 15.765-4.802 45.682 0 139.298 15.469 213.536 15.469 231.979 0 67.652-29.407 120.261-37.778 120.261m128.037-206.993c-12.494-20.1-23.543-42.75-33.019-65.442 3.145 10.581 6.077 21.29 8.627 31.956 6.16 12.621 12.79 24.86 19.887 36.291 1.615 2.592 3.187 5.099 4.845 7.521 11.728 105.473-38.968 141.041-38.968 141.041s-1.53-19.973-44.96-88.39c-3.144-49.039-20.142-78.785-12.748-250.634 1.954 1.02 4.079 1.827 6.289 2.294 1.615.34 3.272.51 5.014.51 1.87 0 3.697-.255 5.44-.637a22.5 22.5 0 0 0 6.459-2.55c1.955-1.105 3.74-2.464 5.269-4.079a25.1 25.1 0 0 0 3.655-4.802c1.827-3.145 2.932-6.757 3.144-10.624 16.786 12.494 89.835 69.012 131.607 136.196 50.229 80.825 24.137 128.845 33.019 143.123 0 0-51.759 11.431-103.518-71.774z"/><path fill="#010101" d="M352.174 396.916c-10.539-11.559-26.517-44.917 5.141-73.644-24.179-6.459-57.453 58.175-5.141 73.644M314.439 173.733a4.04 4.04 0 0 0 5.694.467c1.275-1.062 2.167-3.739.51-5.694-.51-.553-11.134-13.174-25.88-25.327 1.743-1.275 4.037-3.017 6.545-4.887 6.289 5.269 30.681 26.219 46.022 45.299 1.402 1.743 3.952 1.998 5.694.595 1.742-1.402 1.997-3.952.637-5.694-15-18.613-37.523-38.288-45.682-45.172 2.677-1.997 4.972-3.739 6.162-4.632 16.488 11.984 25.837 23.415 25.922 23.542 1.402 1.743 3.952 1.998 5.652.595 1.742-1.402 2.04-3.909.637-5.652-.467-.552-11.006-13.513-30.001-26.814-1.445-1.02-3.315-.977-4.717.085l-25.879 19.335c-2.423 1.785-1.913 4.845-.086 6.417 16.149 12.578 28.642 27.324 28.727 27.452zM306.705 207.601c-24.647 0-32.721-26.389-63.573-26.389-16.573 0-25.114 6.501-25.114 12.026s6.417 10.368 6.417 10.368c3.144 6.757-18.401 14.194-7.097 18.741l13.896 5.397c-4.462 7.861-1.53 22.479-.68 26.176-28.472.255-25.709 9.094-1.02 9.477.085 4.037-2.847 14.958 1.572 14.958 4.675 0 10.667-5.482 12.919-15.851 20.737-2.549 44.067-9.688 44.067-9.688 4.079-1.19 8.329-4.972.34-9.647l-38.118-22.395s-3.272-1.954-1.147-6.884l2.932-6.714c.807-1.997 2.889-2.337 3.909-2.337 10.837 0 27.112 16.233 48.657 16.233 9.349 0 19.76-5.482 19.76-10.709s-12.876-2.635-17.678-2.635zm-63.445 7.309c-.553 1.232-1.955 1.785-3.187 1.19l-11.771-5.694c-3.017-1.445-2.847-3.4.382-4.25l15.468-4.122c2.932-.765 4.335.85 3.145 3.655zm38.713 32.551s-9.987 4.505-34.421 5.992c-.468-2.38-1.997-11.431.17-19.293z"/><path fill="#eaaa00" d="M474.136 21.134c60.215 0 78.615 35.228 116.733 62.722h58.558v30.936l29.831-19.887 15.468 51.036-30.043 6.714c178.818 140.743 154.213 233.934 154.213 258.964 0 9.561 3.612 21.927 3.612 21.927q-6.501 1.02-12.748 1.02c-56.093 0-92.256-58.77-92.256-58.77 12.111 49.889-15.766 128.249-48.827 140.063-1.487-16.063-16.658-44.195-42.197-87.455 2.592 99.651-38.203 145.12-43.558 145.12-8.881 0-15.17-9.264-30.341-9.264-5.524 0-14.873.595-26.007.595-16.913 0-37.99-1.359-56.135-8.074-59.961 36.376-138.916 62.298-153.237 62.298-10.964 0-16.403-18.018-18.74-26.39-2.932-10.411-20.568-26.686-24.392-68.034-13.726 0-30.979 3.06-50.484 3.06-49.294 0-58.686-24.18-58.686-44.152 0-17.508 6.587-20.44 6.587-29.959 0-14.023-18.91-22.82-2.719-40.455-11.729-13.259 1.359-39.138-.595-46.957 0 0-33.699-1.785-33.699-28.302 0-28.344 52.524-81.887 52.524-106.237 0-11.133-3.527-18.91-3.527-24.859 0-15.383 42.835-58.091 129.269-117.286-8.201-17.253-2.167-66.25 63.572-66.25 22.778 0 36.164 2.848 40.583 2.848 5.737 0 32.126-5.015 57.241-5.015m0-10.964c-17.721 0-35.569 2.338-47.382 3.867-4.08.51-8.669 1.148-9.859 1.148-.722 0-3.102-.298-5.227-.553-7.054-.85-18.868-2.294-35.356-2.294-40.327 0-59.407 16.87-68.331 31.021s-10.497 29.916-8.117 41.772c-37.948 26.305-69.521 50.952-91.661 71.477-32.041 29.789-35.738 42.962-35.738 50.271 0 3.74.764 7.267 1.614 11.006.935 4.25 1.913 8.627 1.913 13.854 0 8.414-12.706 27.749-22.948 43.259-15.213 23.118-29.576 44.96-29.576 62.935 0 22.82 17.635 33.486 32.636 37.396-.085.382-.17.807-.255 1.19-2.21 9.943-5.354 24.052-.34 35.95-8.669 14.151-2.38 25.667 1.615 32.934 1.7 3.144 3.357 6.077 3.357 8.201 0 1.785-.51 3.017-1.7 5.95-2.04 4.929-4.887 11.728-4.887 24.009 0 20.61 9.052 55.116 69.692 55.116 11.134 0 21.502-.935 30.639-1.785 3.527-.34 6.926-.637 10.198-.85 4.08 25.837 13.386 41.645 19.208 51.547 1.87 3.187 3.825 6.501 4.25 8.074 2.634 9.391 9.646 34.378 29.321 34.378 17.465 0 95.231-26.262 154.469-61.235 14.916 4.717 32.933 7.012 54.861 7.012 6.756 0 12.833-.213 17.763-.383 3.314-.127 6.204-.212 8.286-.212 5.907 0 9.73 1.997 14.236 4.292 4.504 2.337 9.56 4.929 16.105 4.929 4.335 0 8.244-2.125 13.13-7.139 3.698-3.782 16.532-18.443 27.113-48.317 6.672-18.825 11.049-39.477 13.088-61.745 11.644 20.993 20.526 39.35 21.46 49.464l1.318 14.109 13.343-4.76c18.995-6.757 36.503-29.534 48.062-62.467 6.289-17.933 9.944-36.673 10.75-54.139 17.594 17.211 44.578 35.993 78.574 35.993a92 92 0 0 0 14.448-1.147l12.324-1.955-3.485-11.983c-.892-3.017-3.144-12.324-3.144-18.868 0-1.827.169-4.377.382-7.394 2.337-33.784 8.456-121.45-140.955-245.79l7.776-1.743 11.559-2.592-3.442-11.346-15.47-51.036-4.29-14.194-12.324 8.244-12.706 8.5V72.721H594.48c-8.286-6.204-15.766-12.875-23.032-19.377C547.609 32.055 522.919 10 474.136 10z"/></svg>